<svg xmlns="http://www.w3.org/2000/svg" xmlns:xlink="http://www.w3.org/1999/xlink" width="60" zoomAndPan="magnify" viewBox="0 0 45 44.999999" height="60" preserveAspectRatio="xMidYMid meet" version="1.0"><defs><clipPath id="88c3a4b201"><path d="M 6.601562 3.148438 L 26 3.148438 L 26 33 L 6.601562 33 Z M 6.601562 3.148438 " clip-rule="nonzero"/></clipPath><clipPath id="568280ce27"><path d="M 23 12 L 35.851562 12 L 35.851562 40.648438 L 23 40.648438 Z M 23 12 " clip-rule="nonzero"/></clipPath><clipPath id="85882eae74"><path d="M 29 3.148438 L 35.851562 3.148438 L 35.851562 10 L 29 10 Z M 29 3.148438 " clip-rule="nonzero"/></clipPath></defs><g clip-path="url(#88c3a4b201)"><path fill="#2ba977" d="M 19.757812 3.148438 L 25.855469 3.148438 L 25.855469 31.292969 C 22.730469 31.886719 20.433594 32.121094 17.945312 32.121094 C 10.496094 32.113281 6.621094 28.761719 6.621094 22.328125 C 6.621094 16.128906 10.734375 12.105469 17.105469 12.105469 C 18.09375 12.105469 18.847656 12.183594 19.757812 12.417969 Z M 19.972656 17.488281 C 19.257812 17.253906 18.667969 17.175781 17.914062 17.175781 C 14.832031 17.175781 13.050781 19.070312 13.050781 22.390625 C 13.050781 25.621094 14.753906 27.40625 17.875 27.40625 C 18.550781 27.40625 19.101562 27.367188 19.972656 27.25 Z M 19.972656 17.488281 " fill-opacity="1" fill-rule="nonzero"/></g><g clip-path="url(#568280ce27)"><path fill="#2ba977" d="M 35.828125 12.859375 L 35.828125 26.949219 C 35.828125 31.804688 35.464844 34.136719 34.40625 36.148438 C 33.417969 38.082031 32.117188 39.300781 29.421875 40.648438 L 23.765625 37.964844 C 26.457031 36.703125 27.761719 35.589844 28.59375 33.890625 C 29.464844 32.15625 29.738281 30.144531 29.738281 24.851562 L 29.738281 12.859375 Z M 35.828125 12.859375 " fill-opacity="1" fill-rule="nonzero"/></g><g clip-path="url(#85882eae74)"><path fill="#2ba977" d="M 29.125 3.148438 L 35.222656 3.148438 L 35.222656 9.386719 L 29.125 9.386719 Z M 29.125 3.148438 " fill-opacity="1" fill-rule="nonzero"/></g></svg>