<svg xmlns="http://www.w3.org/2000/svg" xmlns:xlink="http://www.w3.org/1999/xlink" width="500" zoomAndPan="magnify" viewBox="0 0 375 374.999991" height="500" preserveAspectRatio="xMidYMid meet" version="1.0"><defs><clipPath id="6eee339b45"><path d="M 110.246094 61.160156 L 264.746094 61.160156 L 264.746094 305.660156 L 110.246094 305.660156 Z M 110.246094 61.160156 " clip-rule="nonzero"/></clipPath></defs><g clip-path="url(#6eee339b45)"><path fill="#ffffff" d="M 154.496094 289.859375 C 134.519531 284.074219 119.917969 266.9375 117.367188 246.300781 C 114.820312 225.660156 124.820312 205.488281 142.785156 195.015625 C 128.542969 207.707031 121.4375 226.578125 123.773438 245.507812 C 126.113281 264.4375 137.59375 281.015625 154.496094 289.859375 M 155.199219 133.664062 C 168.714844 151.605469 159.511719 172.644531 151.917969 186.121094 C 167.484375 172.109375 170.945312 139.84375 155.199219 133.664062 Z M 180.023438 298.757812 C 172.824219 291.890625 170.210938 281.5 173.3125 272.042969 C 176.414062 262.589844 184.675781 255.765625 194.539062 254.5 C 185.769531 257.324219 178.882812 264.175781 176.011719 272.933594 C 173.140625 281.683594 174.632812 291.285156 180.023438 298.757812 Z M 196.886719 206.722656 C 208.402344 199.609375 222.476562 197.953125 235.328125 202.199219 C 248.179688 206.445312 258.496094 216.160156 263.507812 228.734375 C 251.039062 207.285156 228.832031 199.945312 196.886719 206.722656 Z M 119.289062 165.699219 C 118.839844 174.101562 123.144531 182.046875 130.425781 186.265625 C 125.890625 185.554688 121.949219 182.773438 119.769531 178.738281 C 117.582031 174.703125 117.40625 169.878906 119.289062 165.699219 Z M 159.5 258.53125 C 153.09375 232.78125 171.835938 213.75 184.167969 193.144531 C 187.261719 187.972656 189.671875 182.785156 191.316406 177.707031 C 192.425781 188.285156 190.722656 199.066406 186.238281 208.917969 C 200.242188 195.25 206.105469 175.269531 201.703125 156.203125 C 197.300781 137.136719 183.273438 121.75 164.695312 115.601562 C 178.035156 115.507812 190.570312 109.203125 198.601562 98.554688 C 200.292969 96.316406 201.742188 93.9375 202.945312 91.457031 C 200.046875 92.335938 197.082031 93.019531 194.082031 93.5 C 207.785156 86.054688 209.789062 76.046875 205.675781 61.269531 C 202.9375 69.503906 194.507812 78.128906 180.386719 87.144531 C 185.148438 80.011719 187.296875 72.011719 186.828125 63.144531 C 183.816406 72.769531 175.386719 79.285156 161.535156 82.695312 C 164.332031 78.054688 165.8125 72.785156 165.984375 66.886719 C 163.648438 74.585938 153.539062 84.382812 135.660156 96.277344 C 127.246094 101.96875 123.851562 110.089844 125.472656 120.628906 L 110.246094 128.128906 C 125.097656 131.09375 129.917969 138.082031 124.707031 149.085938 C 122.460938 153.640625 119.300781 158.945312 115.222656 165.011719 C 111.003906 172.144531 112.414062 181.261719 118.589844 186.785156 C 124.765625 192.308594 133.984375 192.699219 140.601562 187.714844 C 154.359375 177.351562 141.472656 155.078125 141.101562 137.617188 C 141.160156 134.355469 142.808594 131.328125 145.515625 129.507812 C 158.972656 120.457031 192.5625 149.9375 154.289062 190.601562 C 147.171875 198.0625 140.523438 207.359375 134.335938 218.492188 C 116.167969 253.714844 152.066406 286.457031 177.789062 305.445312 C 176.996094 304.375 176.230469 303.304688 175.484375 302.242188 C 137.683594 248.289062 247.042969 226.191406 233.945312 262.707031 C 245.199219 257.949219 251.96875 247.480469 250.9375 236.425781 C 257.785156 254.875 247.039062 274.847656 226.601562 281.660156 C 247.75 280.011719 264.074219 264.394531 264.402344 245.492188 C 264.730469 226.59375 248.957031 210.53125 227.878906 208.300781 C 194.597656 203.644531 157.351562 219.699219 159.5 258.53125 Z M 159.5 258.53125 " fill-opacity="1" fill-rule="evenodd"/></g></svg>