<svg xmlns="http://www.w3.org/2000/svg" xmlns:xlink="http://www.w3.org/1999/xlink" width="60" zoomAndPan="magnify" viewBox="0 0 45 44.999999" height="60" preserveAspectRatio="xMidYMid meet" version="1.0"><defs><clipPath id="d135361c94"><path d="M 9 23 L 36 23 L 36 39.75 L 9 39.75 Z M 9 23 " clip-rule="nonzero"/></clipPath><clipPath id="99b44132b2"><path d="M 18 4.5 L 31 4.5 L 31 25 L 18 25 Z M 18 4.5 " clip-rule="nonzero"/></clipPath></defs><g clip-path="url(#d135361c94)"><path fill="#4e7896" d="M 18.039062 31.5 C 18.039062 31.5 16.699219 32.316406 18.96875 32.550781 C 21.703125 32.898438 23.160156 32.839844 26.183594 32.257812 C 26.792969 32.632812 27.433594 32.941406 28.105469 33.191406 C 21.296875 36.105469 12.683594 33.015625 18.035156 31.5 Z M 17.167969 27.710938 C 17.167969 27.710938 15.710938 28.816406 17.980469 29.050781 C 20.949219 29.34375 23.277344 29.402344 27.292969 28.585938 C 27.6875 28.988281 28.152344 29.28125 28.6875 29.460938 C 20.484375 31.910156 11.289062 29.695312 17.167969 27.710938 Z M 33.226562 34.355469 C 33.226562 34.355469 34.214844 35.171875 32.121094 35.8125 C 28.222656 36.980469 15.769531 37.332031 12.277344 35.8125 C 11.054688 35.289062 13.382812 34.53125 14.128906 34.414062 C 14.886719 34.238281 15.296875 34.238281 15.296875 34.238281 C 13.957031 33.308594 6.390625 36.164062 11.457031 36.980469 C 25.363281 39.253906 36.828125 35.988281 33.21875 34.355469 Z M 18.667969 23.742188 C 18.667969 23.742188 12.324219 25.261719 16.398438 25.785156 C 18.144531 26.019531 21.574219 25.957031 24.777344 25.726562 C 27.394531 25.492188 30.015625 25.027344 30.015625 25.027344 C 30.015625 25.027344 29.085938 25.4375 28.445312 25.84375 C 21.984375 27.535156 9.589844 26.777344 13.140625 25.027344 C 16.164062 23.570312 18.667969 23.746094 18.667969 23.746094 Z M 30.015625 30.097656 C 36.53125 26.714844 33.507812 23.453125 31.410156 23.859375 C 30.890625 23.976562 30.65625 24.09375 30.65625 24.09375 C 30.65625 24.09375 30.828125 23.746094 31.234375 23.628906 C 35.367188 22.167969 38.625 28 29.898438 30.273438 C 29.898438 30.273438 29.953125 30.214844 30.011719 30.097656 Z M 19.308594 39.3125 C 25.59375 39.71875 35.195312 39.078125 35.429688 36.105469 C 35.429688 36.105469 34.964844 37.273438 30.25 38.144531 C 24.894531 39.136719 18.261719 39.019531 14.363281 38.378906 C 14.363281 38.378906 15.175781 39.078125 19.308594 39.3125 Z M 19.308594 39.3125 " fill-opacity="1" fill-rule="nonzero"/></g><g clip-path="url(#99b44132b2)"><path fill="#f58219" d="M 26.070312 4.5 C 26.070312 4.5 29.675781 8.175781 22.636719 13.714844 C 16.992188 18.203125 21.355469 20.769531 22.636719 23.6875 C 19.316406 20.710938 16.933594 18.085938 18.5625 15.640625 C 20.949219 12.023438 27.523438 10.285156 26.070312 4.5 Z M 24.21875 21.238281 C 25.90625 23.160156 23.75 24.910156 23.75 24.910156 C 23.75 24.910156 28.058594 22.695312 26.078125 19.953125 C 24.277344 17.328125 22.878906 16.046875 30.441406 11.671875 C 30.441406 11.671875 18.515625 14.648438 24.21875 21.238281 Z M 24.21875 21.238281 " fill-opacity="1" fill-rule="nonzero"/></g></svg>